<?xml version="1.0" standalone="no"?>
<!DOCTYPE svg PUBLIC "-//W3C//DTD SVG 20010904//EN"
 "http://www.w3.org/TR/2001/REC-SVG-20010904/DTD/svg10.dtd">
<svg version="1.0" xmlns="http://www.w3.org/2000/svg"
 width="700.000000pt" height="700.000000pt" viewBox="0 0 700.000000 700.000000"
 preserveAspectRatio="xMidYMid meet">
<metadata>
Created by potrace 1.14, written by Peter Selinger 2001-2017
</metadata>
<g transform="translate(0.000000,700.000000) scale(0.100000,-0.100000)"
fill="#000000" stroke="none">
<path d="M3093 6405 c-106 -19 -207 -77 -298 -169 -86 -87 -124 -151 -152
-258 -14 -54 -17 -129 -17 -540 -1 -311 -4 -478 -11 -479 -5 0 -359 -1 -785
-3 -767 -2 -776 -2 -841 -24 -170 -57 -314 -199 -377 -373 l-26 -74 -1 -1685
c-1 -927 2 -1705 7 -1730 34 -189 153 -346 324 -429 124 -59 -41 -56 2574 -56
1323 0 2423 3 2445 7 233 39 431 238 473 473 4 28 8 808 7 1735 l-1 1685 -27
74 c-69 194 -223 334 -428 388 -13 3 -372 7 -797 9 -425 1 -776 5 -780 9 -4 3
-7 221 -8 483 -1 262 -5 487 -8 500 -3 12 -8 32 -11 43 -10 46 -67 155 -107
204 -81 99 -197 175 -313 205 -67 18 -751 22 -842 5z m695 -1301 l2 -729 -290
0 -290 0 0 726 c0 399 2 728 4 730 2 2 132 4 288 3 l283 -1 3 -729z m-1163
-1892 c0 -203 3 -285 12 -290 6 -4 138 -7 292 -6 l281 0 0 -291 0 -291 -272 0
c-150 1 -282 0 -293 -2 -20 -3 -20 -10 -20 -290 l0 -287 -290 0 -290 0 -1 283
c-1 156 -4 286 -8 289 -3 4 -134 7 -291 7 -251 0 -285 2 -286 15 0 25 0 386 0
482 l1 85 281 0 c154 -1 285 2 291 5 7 4 10 110 10 293 l0 286 291 -2 292 -3
0 -283z m2916 -60 c0 -70 0 -212 0 -309 l-1 -73 -875 0 -875 0 0 220 0 219
875 0 875 0 1 -57z m-600 -821 c15 -1 17 -25 17 -218 l0 -218 -581 0 -582 1
-3 216 c-2 197 -1 217 15 220 14 3 1087 2 1134 -1z"/>
</g>
</svg>
