<?xml version="1.0" standalone="no"?>
<!DOCTYPE svg PUBLIC "-//W3C//DTD SVG 20010904//EN"
 "http://www.w3.org/TR/2001/REC-SVG-20010904/DTD/svg10.dtd">
<svg version="1.0" xmlns="http://www.w3.org/2000/svg"
 width="700.000000pt" height="700.000000pt" viewBox="0 0 700.000000 700.000000"
 preserveAspectRatio="xMidYMid meet">
<metadata>
Created by potrace 1.14, written by Peter Selinger 2001-2017
</metadata>
<g transform="translate(0.000000,700.000000) scale(0.100000,-0.100000)"
fill="#000000" stroke="none">
<path d="M3470 6102 c-14 -9 -57 -42 -97 -72 -39 -30 -216 -163 -393 -295
-177 -132 -357 -267 -400 -300 -43 -33 -223 -168 -400 -300 -176 -132 -392
-294 -480 -360 -87 -66 -168 -127 -181 -135 -12 -8 -27 -19 -33 -25 -6 -5 -69
-53 -140 -105 -70 -52 -140 -104 -154 -116 l-26 -21 0 -1742 c-1 -959 1 -1746
4 -1750 3 -4 1052 -7 2333 -7 2067 1 2327 3 2328 16 0 8 2 793 2 1744 2 1525
0 1732 -13 1747 -18 21 -2296 1728 -2313 1734 -7 2 -23 -4 -37 -13z m-700
-2310 l0 -438 73 1 72 0 2 430 c0 237 2 433 2 438 1 4 66 7 146 7 l145 0 0
-438 0 -439 72 1 72 1 0 438 0 437 146 0 146 0 -1 -482 c-2 -470 -2 -484 -24
-539 -60 -156 -194 -267 -341 -285 -30 -3 -58 -8 -62 -11 -5 -2 -8 -265 -8
-584 l0 -579 -145 0 c-80 0 -145 3 -146 8 0 4 -2 266 -2 582 l-2 575 -51 6
c-193 24 -346 169 -378 359 -5 30 -8 450 -6 848 l0 102 145 0 145 0 0 -438z
m1605 -795 c0 -676 -3 -1233 -6 -1238 -3 -6 -65 -8 -145 -7 l-139 3 -1 495
c-1 272 -2 501 -3 508 -1 9 -37 12 -147 12 l-145 0 4 488 c2 268 7 500 10 515
30 117 88 213 179 300 97 92 256 159 363 154 l30 -2 0 -1228z"/>
</g>
</svg>
